<svg width="4" height="10" viewBox="0 0 4 10" fill="none" xmlns="http://www.w3.org/2000/svg">
<path d="M0.889625 0.599999H3.12163L2.74963 6.084H1.26163L0.889625 0.599999ZM2.00563 9.096C1.67763 9.096 1.40163 8.992 1.17763 8.784C0.961625 8.568 0.853625 8.308 0.853625 8.004C0.853625 7.7 0.961625 7.448 1.17763 7.248C1.39363 7.04 1.66963 6.936 2.00563 6.936C2.34163 6.936 2.61763 7.04 2.83363 7.248C3.04963 7.448 3.15763 7.7 3.15763 8.004C3.15763 8.308 3.04563 8.568 2.82163 8.784C2.60563 8.992 2.33363 9.096 2.00563 9.096Z" fill="black"/>
</svg>
