<svg width="25" height="25" viewBox="0 0 25 25" fill="none" xmlns="http://www.w3.org/2000/svg">
<g clip-path="url(#clip0_161_3687)">
<path d="M19.7664 7.47347C19.5789 7.25863 19.3094 7.13363 19.0243 7.13363H5.17269C4.63363 7.13363 4.19613 7.57113 4.19613 8.11019C4.19613 8.64925 4.63363 9.08675 5.17269 9.08675H17.8836L17.0321 14.5985C16.9383 15.2157 16.4149 15.6649 15.7899 15.6649H3.55941L1.94222 5.19222C1.86019 4.65706 1.36019 4.29378 0.828939 4.37581C0.293783 4.45785 -0.0694982 4.95785 0.0125331 5.4891L2.2391 19.8953C2.32503 20.45 2.60628 20.9578 3.03206 21.325C3.45785 21.6922 4.00472 21.8914 4.56331 21.8914H6.09456V23.3875C6.09456 23.9266 6.53206 24.3641 7.07113 24.3641C7.61019 24.3641 8.04769 23.9266 8.04769 23.3875V21.8914H13.7586V23.3875C13.7586 23.9266 14.1961 24.3641 14.7352 24.3641C15.2743 24.3641 15.7118 23.9266 15.7118 23.3875V21.8914H17.5946C18.1336 21.8914 18.5711 21.4539 18.5711 20.9149C18.5711 20.3758 18.1336 19.9383 17.5946 19.9383H4.56331C4.3641 19.9383 4.19613 19.7938 4.16488 19.5985L3.86019 17.618H15.7899C16.5555 17.618 17.2977 17.3446 17.8797 16.8446C18.4618 16.3446 18.8446 15.6532 18.9618 14.8993L19.9891 8.25863C20.0321 7.97347 19.95 7.68831 19.7664 7.47347Z" fill="#3287EB"/>
</g>
<circle cx="19.1826" cy="5" r="5" fill="#FDC300"/>
<path d="M20.9979 6.058V7H17.7279V6.256L19.2999 4.78599C19.4519 4.64199 19.5539 4.51999 19.6059 4.41999C19.6579 4.31599 19.6839 4.21199 19.6839 4.10799C19.6839 3.97199 19.6379 3.86599 19.5459 3.78999C19.4539 3.71399 19.3199 3.67599 19.1439 3.67599C18.9879 3.67599 18.8439 3.71199 18.7119 3.78399C18.5839 3.85199 18.4779 3.95199 18.3939 4.08399L17.5119 3.59199C17.6759 3.31999 17.9059 3.10599 18.2019 2.94999C18.4979 2.79399 18.8479 2.71599 19.2519 2.71599C19.5719 2.71599 19.8539 2.76799 20.0979 2.87199C20.3459 2.97599 20.5379 3.12599 20.6739 3.32199C20.8139 3.51399 20.8839 3.73799 20.8839 3.99399C20.8839 4.22199 20.8339 4.43799 20.7339 4.64199C20.6379 4.842 20.4499 5.07 20.1699 5.326L19.3779 6.058H20.9979Z" fill="#172542"/>
<defs>
<clipPath id="clip0_161_3687">
<rect width="20" height="20" fill="white" transform="translate(0.000976562 4.36377)"/>
</clipPath>
</defs>
</svg>
