<svg width="20" height="21" viewBox="0 0 20 21" fill="none" xmlns="http://www.w3.org/2000/svg">
<g clip-path="url(#clip0_161_3642)">
<path d="M19.7664 3.47347C19.5789 3.25863 19.3094 3.13363 19.0243 3.13363H5.17269C4.63363 3.13363 4.19613 3.57113 4.19613 4.11019C4.19613 4.64925 4.63363 5.08675 5.17269 5.08675H17.8836L17.0321 10.5985C16.9383 11.2157 16.4149 11.6649 15.7899 11.6649H3.55941L1.94222 1.19222C1.86019 0.657064 1.36019 0.293783 0.828939 0.375814C0.293783 0.457846 -0.0694982 0.957846 0.0125331 1.4891L2.2391 15.8953C2.32503 16.45 2.60628 16.9578 3.03206 17.325C3.45785 17.6922 4.00472 17.8914 4.56331 17.8914H6.09456V19.3875C6.09456 19.9266 6.53206 20.3641 7.07113 20.3641C7.61019 20.3641 8.04769 19.9266 8.04769 19.3875V17.8914H13.7586V19.3875C13.7586 19.9266 14.1961 20.3641 14.7352 20.3641C15.2743 20.3641 15.7118 19.9266 15.7118 19.3875V17.8914H17.5946C18.1336 17.8914 18.5711 17.4539 18.5711 16.9149C18.5711 16.3758 18.1336 15.9383 17.5946 15.9383H4.56331C4.3641 15.9383 4.19613 15.7938 4.16488 15.5985L3.86019 13.618H15.7899C16.5555 13.618 17.2977 13.3446 17.8797 12.8446C18.4618 12.3446 18.8446 11.6532 18.9618 10.8993L19.9891 4.25863C20.0321 3.97347 19.95 3.68831 19.7664 3.47347Z" fill="#D6E3F2"/>
</g>
<defs>
<clipPath id="clip0_161_3642">
<rect width="20" height="20" fill="white" transform="translate(0.000976562 0.36377)"/>
</clipPath>
</defs>
</svg>
