<svg width="21" height="3" viewBox="0 0 21 3" fill="none" xmlns="http://www.w3.org/2000/svg">
<path d="M1.484 2.07C1.27867 2.07 1.10133 1.99533 0.952 1.846C0.812 1.69667 0.742 1.51467 0.742 1.3C0.742 1.08533 0.812 0.908 0.952 0.768C1.10133 0.618667 1.27867 0.544 1.484 0.544C1.68933 0.544 1.86667 0.618667 2.016 0.768C2.16533 0.908 2.24 1.08533 2.24 1.3C2.24 1.51467 2.16533 1.69667 2.016 1.846C1.86667 1.99533 1.68933 2.07 1.484 2.07ZM5.1508 2.07C4.94546 2.07 4.76813 1.99533 4.6188 1.846C4.4788 1.69667 4.4088 1.51467 4.4088 1.3C4.4088 1.08533 4.4788 0.908 4.6188 0.768C4.76813 0.618667 4.94546 0.544 5.1508 0.544C5.35613 0.544 5.53346 0.618667 5.6828 0.768C5.83213 0.908 5.9068 1.08533 5.9068 1.3C5.9068 1.51467 5.83213 1.69667 5.6828 1.846C5.53346 1.99533 5.35613 2.07 5.1508 2.07ZM8.81759 2.07C8.61226 2.07 8.43493 1.99533 8.28559 1.846C8.14559 1.69667 8.07559 1.51467 8.07559 1.3C8.07559 1.08533 8.14559 0.908 8.28559 0.768C8.43493 0.618667 8.61226 0.544 8.81759 0.544C9.02293 0.544 9.20026 0.618667 9.34959 0.768C9.49893 0.908 9.57359 1.08533 9.57359 1.3C9.57359 1.51467 9.49893 1.69667 9.34959 1.846C9.20026 1.99533 9.02293 2.07 8.81759 2.07ZM12.4844 2.07C12.2791 2.07 12.1017 1.99533 11.9524 1.846C11.8124 1.69667 11.7424 1.51467 11.7424 1.3C11.7424 1.08533 11.8124 0.908 11.9524 0.768C12.1017 0.618667 12.2791 0.544 12.4844 0.544C12.6897 0.544 12.8671 0.618667 13.0164 0.768C13.1657 0.908 13.2404 1.08533 13.2404 1.3C13.2404 1.51467 13.1657 1.69667 13.0164 1.846C12.8671 1.99533 12.6897 2.07 12.4844 2.07ZM16.1512 2.07C15.9459 2.07 15.7685 1.99533 15.6192 1.846C15.4792 1.69667 15.4092 1.51467 15.4092 1.3C15.4092 1.08533 15.4792 0.908 15.6192 0.768C15.7685 0.618667 15.9459 0.544 16.1512 0.544C16.3565 0.544 16.5339 0.618667 16.6832 0.768C16.8325 0.908 16.9072 1.08533 16.9072 1.3C16.9072 1.51467 16.8325 1.69667 16.6832 1.846C16.5339 1.99533 16.3565 2.07 16.1512 2.07ZM19.818 2.07C19.6127 2.07 19.4353 1.99533 19.286 1.846C19.146 1.69667 19.076 1.51467 19.076 1.3C19.076 1.08533 19.146 0.908 19.286 0.768C19.4353 0.618667 19.6127 0.544 19.818 0.544C20.0233 0.544 20.2007 0.618667 20.35 0.768C20.4993 0.908 20.574 1.08533 20.574 1.3C20.574 1.51467 20.4993 1.69667 20.35 1.846C20.2007 1.99533 20.0233 2.07 19.818 2.07Z" fill="#DBE6F4"/>
</svg>
