<svg width="25" height="37" viewBox="0 0 25 37" fill="none" xmlns="http://www.w3.org/2000/svg">
<path d="M3.75723 7.65495L8.37965 3.115L12.9972 7.67992L8.35505 12.2198L3.75723 7.65495Z" fill="#5DAA1A"/>
<path d="M16.1698 0.0414586C16.7378 1.28094 16.7378 1.28094 16.7378 1.28094C14.0747 2.53165 13.3907 7.76112 13.3659 9.67787C13.3342 21.3784 13.3342 21.3784 13.3342 21.3784C11.9748 21.3946 11.9748 21.3946 11.9748 21.3946C12.0066 9.61429 12.0066 9.61429 12.0066 9.61429C11.9878 9.29477 12.1653 1.92749 16.1698 0.0414586Z" fill="#5DAA1A"/>
<path d="M24.0933 13.46L0.963867 13.3975L0.902349 36.1595L24.0318 36.222L24.0933 13.46Z" fill="#E33226"/>
<path d="M12.6797 15.7451L21.5847 15.7692L21.5603 24.7941L12.6797 15.7451Z" fill="white"/>
</svg>
