<svg width="20" height="20" viewBox="0 0 20 20" fill="none" xmlns="http://www.w3.org/2000/svg">
<path d="M9.99969 18.57C9.75769 18.57 9.52569 18.49 9.32769 18.336C9.11969 18.176 4.22969 14.376 2.28569 11.328C1.61569 10.278 0.783691 8.97004 0.783691 7.10204C0.783691 3.97404 3.11169 1.42804 5.97369 1.42804C6.74769 1.42804 7.52569 1.62204 8.22369 1.99004C8.90769 2.35004 9.52369 2.88204 10.0017 3.52604C10.4817 2.88204 11.0957 2.35004 11.7797 1.99004C12.4777 1.62204 13.2557 1.42804 14.0277 1.42804C16.8897 1.42804 19.2177 3.97404 19.2177 7.10204C19.2177 8.96804 18.3837 10.276 17.7137 11.328C17.0237 12.41 15.8917 13.704 14.3457 15.17L14.3317 15.156C15.8757 13.69 17.0077 12.398 17.6957 11.318C18.3637 10.27 19.1957 8.96404 19.1957 7.10404C19.1957 3.98604 16.8757 1.45004 14.0257 1.45004C13.2557 1.45004 12.4817 1.64404 11.7857 2.01004C11.0997 2.37204 10.4837 2.90404 10.0057 3.55204L9.99769 3.56204L9.98969 3.55204C9.51169 2.90604 8.89569 2.37204 8.20969 2.01004C7.51569 1.64404 6.73969 1.45004 5.96969 1.45004C3.11969 1.45004 0.799691 3.98604 0.799691 7.10404C0.799691 8.96604 1.63169 10.27 2.29969 11.318C4.24369 14.364 9.13369 18.162 9.33969 18.322C9.53369 18.472 9.76169 18.552 9.99969 18.552C10.2377 18.552 10.4657 18.472 10.6597 18.322C10.7157 18.278 11.2257 17.884 11.9717 17.258L11.9837 17.274C11.2377 17.9 10.7277 18.296 10.6717 18.338C10.4737 18.49 10.2417 18.57 9.99969 18.57Z" fill="#D6E3F2"/>
<path d="M9.99971 19.154C9.62771 19.154 9.27171 19.032 8.97171 18.798C8.76171 18.636 3.79171 14.776 1.79371 11.642C1.12171 10.586 0.199707 9.14001 0.199707 7.10201C0.199707 3.65401 2.78971 0.846008 5.97171 0.846008C6.83971 0.846008 7.71171 1.06401 8.49371 1.47601C9.04771 1.76801 9.55771 2.15801 9.99971 2.62401C10.4417 2.15801 10.9537 1.76801 11.5057 1.47601C12.2877 1.06401 13.1577 0.846008 14.0257 0.846008C17.2097 0.846008 19.7997 3.65401 19.7997 7.10201C19.7997 9.13801 18.8777 10.584 18.2057 11.64C17.4897 12.762 16.3277 14.092 14.7477 15.592L13.9317 14.732C15.4397 13.3 16.5417 12.046 17.2057 11.004C17.8657 9.96801 18.6157 8.79401 18.6157 7.10201C18.6157 4.30601 16.5577 2.03201 14.0277 2.03201C13.3417 2.03201 12.6797 2.19801 12.0597 2.52401C11.4517 2.84601 10.9037 3.32001 10.4757 3.89601L9.99971 4.54201L9.52371 3.89801C9.09771 3.32201 8.54971 2.84601 7.94171 2.52601C7.32171 2.20001 6.65971 2.03401 5.97371 2.03401C3.44371 2.03401 1.38571 4.30801 1.38571 7.10401C1.38571 8.79601 2.13371 9.97001 2.79371 11.006C4.68171 13.966 9.49171 17.702 9.69571 17.86C9.78771 17.93 9.89171 17.968 9.99771 17.968C10.1057 17.968 10.2097 17.93 10.2997 17.86C10.3557 17.818 10.8577 17.428 11.5937 16.81L12.3557 17.718C11.6017 18.35 11.0817 18.754 11.0257 18.796C10.7277 19.03 10.3717 19.154 9.99971 19.154Z" fill="#D6E3F2"/>
<path d="M13.9619 14.726L14.7339 15.6259L13.9619 14.726Z" fill="#D6E3F2"/>
<path d="M12.3374 17.684L11.5654 16.784L12.3374 17.684Z" fill="#D6E3F2"/>
<path d="M2.86969 7.72002C2.86369 6.61202 3.28769 5.56802 4.06769 4.77802C4.84769 3.99002 5.88569 3.55202 6.99369 3.54602L6.99969 4.73202C6.20769 4.73602 5.46569 5.05002 4.90969 5.61202C4.35369 6.17602 4.04969 6.92202 4.05369 7.71202L2.86969 7.72002Z" fill="#D6E3F2"/>
</svg>
