<svg width="40" height="38" viewBox="0 0 40 38" fill="none" xmlns="http://www.w3.org/2000/svg">
<path d="M19.9999 36.1397C19.5159 36.1397 19.0519 35.9797 18.6559 35.6717C18.2399 35.3517 8.45987 27.7517 4.57187 21.6557C3.23187 19.5557 1.56787 16.9397 1.56787 13.2037C1.56787 6.94771 6.22387 1.85571 11.9479 1.85571C13.4959 1.85571 15.0519 2.24371 16.4479 2.97971C17.8159 3.69971 19.0479 4.76371 20.0039 6.05171C20.9639 4.76371 22.1919 3.69971 23.5599 2.97971C24.9559 2.24371 26.5119 1.85571 28.0559 1.85571C33.7799 1.85571 38.4359 6.94771 38.4359 13.2037C38.4359 16.9357 36.7679 19.5517 35.4279 21.6557C34.0479 23.8197 31.7839 26.4077 28.6919 29.3397L28.6639 29.3117C31.7519 26.3797 34.0159 23.7957 35.3919 21.6357C36.7279 19.5397 38.3919 16.9277 38.3919 13.2077C38.3919 6.97171 33.7519 1.89971 28.0519 1.89971C26.5119 1.89971 24.9639 2.28771 23.5719 3.01971C22.1999 3.74371 20.9679 4.80771 20.0119 6.10371L19.9959 6.12371L19.9799 6.10371C19.0239 4.81171 17.7919 3.74371 16.4199 3.01971C15.0319 2.28771 13.4799 1.89971 11.9399 1.89971C6.23987 1.89971 1.59987 6.97171 1.59987 13.2077C1.59987 16.9317 3.26387 19.5397 4.59987 21.6357C8.48787 27.7277 18.2679 35.3237 18.6799 35.6437C19.0679 35.9437 19.5239 36.1037 19.9999 36.1037C20.4759 36.1037 20.9319 35.9437 21.3199 35.6437C21.4319 35.5557 22.4519 34.7677 23.9439 33.5157L23.9679 33.5477C22.4759 34.7997 21.4559 35.5917 21.3439 35.6757C20.9479 35.9797 20.4839 36.1397 19.9999 36.1397Z" fill="#D6E3F2"/>
<path d="M19.9999 37.3079C19.2559 37.3079 18.5439 37.0639 17.9439 36.5959C17.5239 36.2719 7.5839 28.5519 3.5879 22.2839C2.2439 20.1719 0.399902 17.2799 0.399902 13.2039C0.399902 6.3079 5.5799 0.691895 11.9439 0.691895C13.6799 0.691895 15.4239 1.12789 16.9879 1.95189C18.0959 2.53589 19.1159 3.31589 19.9999 4.24789C20.8839 3.31589 21.9079 2.53589 23.0119 1.95189C24.5759 1.12789 26.3159 0.691895 28.0519 0.691895C34.4199 0.691895 39.5999 6.3079 39.5999 13.2039C39.5999 17.2759 37.7559 20.1679 36.4119 22.2799C34.9799 24.5239 32.6559 27.1839 29.4959 30.1839L27.8639 28.4639C30.8799 25.5999 33.0839 23.0919 34.4119 21.0079C35.7319 18.9359 37.2319 16.5879 37.2319 13.2039C37.2319 7.61189 33.1159 3.06389 28.0559 3.06389C26.6839 3.06389 25.3599 3.39589 24.1199 4.04789C22.9039 4.69189 21.8079 5.63989 20.9519 6.79189L19.9999 8.08389L19.0479 6.79589C18.1959 5.64389 17.0999 4.69189 15.8839 4.05189C14.6439 3.39989 13.3199 3.06789 11.9479 3.06789C6.8879 3.06789 2.7719 7.61589 2.7719 13.2079C2.7719 16.5919 4.2679 18.9399 5.5879 21.0119C9.3639 26.9319 18.9839 34.4039 19.3919 34.7199C19.5759 34.8599 19.7839 34.9359 19.9959 34.9359C20.2119 34.9359 20.4199 34.8599 20.5999 34.7199C20.7119 34.6359 21.7159 33.8559 23.1879 32.6199L24.7119 34.4359C23.2039 35.6999 22.1639 36.5079 22.0519 36.5919C21.4559 37.0599 20.7439 37.3079 19.9999 37.3079Z" fill="#D6E3F2"/>
<path d="M27.9238 28.4519L29.4678 30.2519L27.9238 28.4519Z" fill="#D6E3F2"/>
<path d="M24.6758 34.3679L23.1318 32.5679L24.6758 34.3679Z" fill="#D6E3F2"/>
<path d="M5.73987 14.4398C5.72787 12.2238 6.57587 10.1358 8.13587 8.5558C9.69587 6.9798 11.7719 6.1038 13.9879 6.0918L13.9999 8.4638C12.4159 8.4718 10.9319 9.0998 9.81987 10.2238C8.70787 11.3518 8.09987 12.8438 8.10787 14.4238L5.73987 14.4398Z" fill="#D6E3F2"/>
</svg>
