<svg width="18" height="18" viewBox="0 0 18 18" fill="none" xmlns="http://www.w3.org/2000/svg">
<path d="M8.99972 16.713C8.78192 16.713 8.57312 16.641 8.39492 16.5024C8.20772 16.3584 3.80672 12.9384 2.05712 10.1952C1.45412 9.25015 0.705322 8.07295 0.705322 6.39176C0.705322 3.57656 2.80052 1.28516 5.37632 1.28516C6.07292 1.28516 6.77312 1.45976 7.40132 1.79096C8.01692 2.11496 8.57132 2.59376 9.00152 3.17336C9.43352 2.59376 9.98612 2.11496 10.6017 1.79096C11.2299 1.45976 11.9301 1.28516 12.6249 1.28516C15.2007 1.28516 17.2959 3.57656 17.2959 6.39176C17.2959 8.07115 16.5453 9.24835 15.9423 10.1952C15.3213 11.169 14.3025 12.3336 12.9111 13.653L12.8985 13.6404C14.2881 12.321 15.3069 11.1582 15.9261 10.1862C16.5273 9.24295 17.2761 8.06755 17.2761 6.39356C17.2761 3.58736 15.1881 1.30496 12.6231 1.30496C11.9301 1.30496 11.2335 1.47956 10.6071 1.80896C9.98972 2.13476 9.43532 2.61356 9.00512 3.19676L8.99792 3.20576L8.99072 3.19676C8.56052 2.61536 8.00612 2.13476 7.38872 1.80896C6.76412 1.47956 6.06572 1.30496 5.37272 1.30496C2.80772 1.30496 0.719722 3.58736 0.719722 6.39356C0.719722 8.06936 1.46852 9.24295 2.06972 10.1862C3.81932 12.9276 8.22032 16.3458 8.40572 16.4898C8.58032 16.6248 8.78552 16.6968 8.99972 16.6968C9.21392 16.6968 9.41912 16.6248 9.59372 16.4898C9.64412 16.4502 10.1031 16.0956 10.7745 15.5322L10.7853 15.5466C10.1139 16.11 9.65492 16.4664 9.60452 16.5042C9.42632 16.641 9.21752 16.713 8.99972 16.713Z" fill="#398AEA"/>
<path d="M8.99993 17.2386C8.66513 17.2386 8.34473 17.1288 8.07473 16.9182C7.88573 16.7724 3.41273 13.2984 1.61453 10.4778C1.00973 9.52735 0.179932 8.22595 0.179932 6.39175C0.179932 3.28855 2.51093 0.761353 5.37473 0.761353C6.15593 0.761353 6.94073 0.957553 7.64453 1.32835C8.14313 1.59115 8.60213 1.94215 8.99993 2.36155C9.39773 1.94215 9.85853 1.59115 10.3553 1.32835C11.0591 0.957553 11.8421 0.761353 12.6233 0.761353C15.4889 0.761353 17.8199 3.28855 17.8199 6.39175C17.8199 8.22415 16.9901 9.52555 16.3853 10.476C15.7409 11.4858 14.6951 12.6828 13.2731 14.0328L12.5387 13.2588C13.8959 11.97 14.8877 10.8414 15.4853 9.90355C16.0793 8.97115 16.7543 7.91455 16.7543 6.39175C16.7543 3.87535 14.9021 1.82875 12.6251 1.82875C12.0077 1.82875 11.4119 1.97815 10.8539 2.27155C10.3067 2.56135 9.81353 2.98795 9.42833 3.50635L8.99993 4.08775L8.57153 3.50815C8.18813 2.98975 7.69493 2.56135 7.14773 2.27335C6.58973 1.97995 5.99393 1.83055 5.37653 1.83055C3.09953 1.83055 1.24733 3.87715 1.24733 6.39355C1.24733 7.91635 1.92053 8.97295 2.51453 9.90535C4.21373 12.5694 8.54273 15.9318 8.72633 16.074C8.80913 16.137 8.90273 16.1712 8.99813 16.1712C9.09533 16.1712 9.18893 16.137 9.26993 16.074C9.32033 16.0362 9.77213 15.6852 10.4345 15.129L11.1203 15.9462C10.4417 16.515 9.97373 16.8786 9.92333 16.9164C9.65513 17.127 9.33473 17.2386 8.99993 17.2386Z" fill="#398AEA"/>
<path d="M12.5654 13.2533L13.2602 14.0633L12.5654 13.2533Z" fill="#398AEA"/>
<path d="M11.104 15.9156L10.4092 15.1056L11.104 15.9156Z" fill="#398AEA"/>
<path d="M2.58282 6.94801C2.57742 5.95081 2.95902 5.01121 3.66102 4.30021C4.36302 3.59101 5.29722 3.19681 6.29442 3.19141L6.29982 4.25881C5.58702 4.26241 4.91922 4.54501 4.41882 5.05081C3.91842 5.55841 3.64482 6.22981 3.64842 6.94081L2.58282 6.94801Z" fill="#398AEA"/>
</svg>
