<svg width="20" height="20" viewBox="0 0 20 20" fill="none" xmlns="http://www.w3.org/2000/svg">
<g clip-path="url(#clip0_161_3651)">
<path d="M9.9961 0C6.88672 0 4.35938 2.52734 4.35938 5.63672C4.35938 8.74609 6.88672 11.2734 9.9961 11.2734C13.1055 11.2734 15.6328 8.74609 15.6328 5.63672C15.6328 2.52734 13.1055 0 9.9961 0ZM9.9961 9.31641C7.96484 9.31641 6.3125 7.66406 6.3125 5.63281C6.3125 3.60156 7.96875 1.95312 9.9961 1.95312C12.0234 1.95312 13.6797 3.60547 13.6797 5.63672C13.6797 7.66797 12.0273 9.31641 9.9961 9.31641Z" fill="#3287EB"/>
<path d="M18.9803 16.586C18.4725 14.7149 17.41 13.0704 15.9061 11.836C15.4881 11.4923 14.8748 11.5548 14.5311 11.9688C14.1873 12.3868 14.2498 13.0001 14.6639 13.3438C15.8514 14.3243 16.6951 15.6212 17.0936 17.0977C17.1756 17.4063 17.0467 17.6329 16.9647 17.7462C16.8162 17.9376 16.5936 18.0508 16.3514 18.0508C15.8123 18.0508 15.3748 18.4883 15.3748 19.0274C15.3748 19.5665 15.8123 20.004 16.3514 20.004C17.2069 20.004 17.9959 19.6134 18.5155 18.9337C19.0311 18.2579 19.203 17.4024 18.9803 16.586Z" fill="#3287EB"/>
<path d="M12.8437 18.0467H3.64452C3.3164 18.0467 3.12499 17.8592 3.03905 17.746C2.89061 17.5506 2.84374 17.3045 2.91014 17.0702C3.31249 15.6092 4.14843 14.3202 5.32421 13.3514C5.73827 13.0077 5.80077 12.3944 5.45702 11.9764C5.11327 11.5585 4.49999 11.4999 4.08202 11.8436C2.59374 13.0741 1.53514 14.6991 1.02733 16.5545C0.800769 17.3827 0.968738 18.2499 1.48827 18.9335C1.99999 19.6092 2.78905 19.9999 3.64452 19.9999H12.8437C13.3828 19.9999 13.8203 19.5624 13.8203 19.0233C13.8203 18.4842 13.3828 18.0467 12.8437 18.0467Z" fill="#3287EB"/>
</g>
<defs>
<clipPath id="clip0_161_3651">
<rect width="20" height="20" fill="white"/>
</clipPath>
</defs>
</svg>
