<svg width="20" height="19" viewBox="0 0 20 19" fill="none" xmlns="http://www.w3.org/2000/svg">
<path d="M10.0012 18.689C9.62917 18.689 9.27317 18.567 8.97317 18.333C8.76317 18.171 3.79317 14.311 1.79517 11.177C1.12317 10.121 0.201172 8.67498 0.201172 6.63698C0.201172 3.18898 2.79117 0.380981 5.97317 0.380981C6.84117 0.380981 7.71317 0.598982 8.49517 1.01098C9.04917 1.30298 9.55917 1.69298 10.0012 2.15898C10.4432 1.69298 10.9552 1.30298 11.5072 1.01098C12.2892 0.598982 13.1592 0.380981 14.0272 0.380981C17.2112 0.380981 19.8012 3.18898 19.8012 6.63698C19.8012 8.67298 18.8792 10.119 18.2072 11.175C17.4912 12.297 16.3292 13.627 14.7492 15.127L13.9332 14.267C15.4412 12.835 16.5432 11.581 17.2072 10.539C17.8672 9.50298 18.6172 8.32898 18.6172 6.63698C18.6172 3.84098 16.5592 1.56698 14.0292 1.56698C13.3432 1.56698 12.6812 1.73298 12.0612 2.05898C11.4532 2.38098 10.9052 2.85498 10.4772 3.43098L10.0012 4.07698L9.52517 3.43298C9.09917 2.85698 8.55117 2.38098 7.94317 2.06098C7.32317 1.73498 6.66117 1.56898 5.97517 1.56898C3.44517 1.56898 1.38717 3.84298 1.38717 6.63898C1.38717 8.33098 2.13517 9.50498 2.79517 10.541C4.68317 13.501 9.49317 17.237 9.69717 17.395C9.78917 17.465 9.89317 17.503 9.99917 17.503C10.1072 17.503 10.2112 17.465 10.3012 17.395C10.3572 17.353 10.8592 16.963 11.5952 16.345L12.3572 17.253C11.6032 17.885 11.0832 18.289 11.0272 18.331C10.7292 18.565 10.3732 18.689 10.0012 18.689Z" fill="#398AEA"/>
</svg>
