<svg width="26" height="24" viewBox="0 0 26 24" fill="none" xmlns="http://www.w3.org/2000/svg">
<path d="M12.9998 23.9003C12.5162 23.9003 12.0534 23.7417 11.6634 23.4375C11.3904 23.2269 4.92937 18.2089 2.33197 14.1347C1.45837 12.7619 0.259766 10.8821 0.259766 8.23265C0.259766 3.75025 3.62677 0.0998535 7.76337 0.0998535C8.89177 0.0998535 10.0254 0.383254 11.042 0.918854C11.7622 1.29845 12.4252 1.80545 12.9998 2.41125C13.5744 1.80545 14.24 1.29845 14.9576 0.918854C15.9742 0.383254 17.1052 0.0998535 18.2336 0.0998535C22.3728 0.0998535 25.7398 3.75025 25.7398 8.23265C25.7398 10.8795 24.5412 12.7593 23.6676 14.1321C22.7368 15.5907 21.2262 17.3197 19.1722 19.2697L18.1114 18.1517C20.0718 16.2901 21.5044 14.6599 22.3676 13.3053C23.2256 11.9585 24.2006 10.4323 24.2006 8.23265C24.2006 4.59785 21.5252 1.64165 18.2362 1.64165C17.3444 1.64165 16.4838 1.85745 15.6778 2.28125C14.8874 2.69985 14.175 3.31605 13.6186 4.06485L12.9998 4.90465L12.381 4.06745C11.8272 3.31865 11.1148 2.69985 10.3244 2.28385C9.51837 1.86005 8.65777 1.64425 7.76597 1.64425C4.47697 1.64425 1.80157 4.60045 1.80157 8.23525C1.80157 10.4349 2.77397 11.9611 3.63197 13.3079C6.08637 17.1559 12.3394 22.0127 12.6046 22.2181C12.7242 22.3091 12.8594 22.3585 12.9972 22.3585C13.1376 22.3585 13.2728 22.3091 13.3898 22.2181C13.4626 22.1635 14.1152 21.6565 15.072 20.8531L16.0626 22.0335C15.0824 22.8551 14.4064 23.3803 14.3336 23.4349C13.9462 23.7391 13.4834 23.9003 12.9998 23.9003Z" fill="#398AEA"/>
</svg>
