<svg width="20" height="20" viewBox="0 0 20 20" fill="none" xmlns="http://www.w3.org/2000/svg">
<g clip-path="url(#clip0_24_445)">
<path d="M9.99561 0C6.88623 0 4.35889 2.52734 4.35889 5.63672C4.35889 8.74609 6.88623 11.2734 9.99561 11.2734C13.105 11.2734 15.6323 8.74609 15.6323 5.63672C15.6323 2.52734 13.105 0 9.99561 0ZM9.99561 9.31641C7.96436 9.31641 6.31201 7.66406 6.31201 5.63281C6.31201 3.60156 7.96826 1.95312 9.99561 1.95312C12.023 1.95312 13.6792 3.60547 13.6792 5.63672C13.6792 7.66797 12.0269 9.31641 9.99561 9.31641Z" fill="#D6E3F2"/>
<path d="M18.9803 16.5859C18.4725 14.7148 17.41 13.0703 15.9061 11.8359C15.4881 11.4921 14.8748 11.5546 14.5311 11.9687C14.1873 12.3867 14.2498 12.9999 14.6639 13.3437C15.8514 14.3242 16.6951 15.621 17.0936 17.0976C17.1756 17.4062 17.0467 17.6328 16.9647 17.746C16.8162 17.9374 16.5936 18.0507 16.3514 18.0507C15.8123 18.0507 15.3748 18.4882 15.3748 19.0273C15.3748 19.5664 15.8123 20.0039 16.3514 20.0039C17.2069 20.0039 17.9959 19.6132 18.5155 18.9335C19.0311 18.2578 19.203 17.4023 18.9803 16.5859Z" fill="#D6E3F2"/>
<path d="M12.8437 18.0468H3.64452C3.3164 18.0468 3.12499 17.8593 3.03905 17.746C2.89061 17.5507 2.84374 17.3046 2.91014 17.0702C3.31249 15.6093 4.14843 14.3202 5.32421 13.3515C5.73827 13.0077 5.80077 12.3945 5.45702 11.9765C5.11327 11.5585 4.49999 11.4999 4.08202 11.8437C2.59374 13.0741 1.53514 14.6991 1.02733 16.5546C0.800769 17.3827 0.968738 18.2499 1.48827 18.9335C1.99999 19.6093 2.78905 19.9999 3.64452 19.9999H12.8437C13.3828 19.9999 13.8203 19.5624 13.8203 19.0234C13.8203 18.4843 13.3828 18.0468 12.8437 18.0468Z" fill="#D6E3F2"/>
</g>
<defs>
<clipPath id="clip0_24_445">
<rect width="20" height="20" fill="white"/>
</clipPath>
</defs>
</svg>
