<svg width="36" height="36" viewBox="0 0 36 36" fill="none" xmlns="http://www.w3.org/2000/svg">
<g clip-path="url(#clip0_1_455)">
<path d="M17.9933 0C12.3964 0 7.84717 4.54922 7.84717 10.1461C7.84717 15.743 12.3964 20.2922 17.9933 20.2922C23.5901 20.2922 28.1394 15.743 28.1394 10.1461C28.1394 4.54922 23.5901 0 17.9933 0ZM17.9933 16.7695C14.337 16.7695 11.3628 13.7953 11.3628 10.1391C11.3628 6.48281 14.344 3.51562 17.9933 3.51562C21.6425 3.51562 24.6237 6.48984 24.6237 10.1461C24.6237 13.8023 21.6495 16.7695 17.9933 16.7695Z" fill="#D6E3F2"/>
<path d="M34.1649 29.8548C33.2509 26.4868 31.3384 23.5266 28.6313 21.3048C27.879 20.686 26.7751 20.7985 26.1563 21.5438C25.5376 22.2962 25.6501 23.4001 26.3954 24.0188C28.5329 25.7837 30.0516 28.118 30.7688 30.7759C30.9165 31.3313 30.6844 31.7391 30.5368 31.943C30.2696 32.2876 29.8688 32.4915 29.4329 32.4915C28.4626 32.4915 27.6751 33.279 27.6751 34.2493C27.6751 35.2196 28.4626 36.0071 29.4329 36.0071C30.9727 36.0071 32.393 35.304 33.3282 34.0805C34.2563 32.8641 34.5657 31.3243 34.1649 29.8548Z" fill="#D6E3F2"/>
<path d="M23.1189 32.4844H6.56033C5.96971 32.4844 5.62517 32.1469 5.47049 31.943C5.2033 31.5914 5.11892 31.1484 5.23846 30.7266C5.96268 28.0969 7.46736 25.7766 9.58377 24.0328C10.3291 23.4141 10.4416 22.3101 9.82283 21.5578C9.20408 20.8055 8.10018 20.7 7.34783 21.3187C4.66892 23.5336 2.76346 26.4586 1.84939 29.7984C1.44158 31.2891 1.74392 32.85 2.67908 34.0805C3.60017 35.2969 5.02049 36 6.56033 36H23.1189C24.0892 36 24.8767 35.2125 24.8767 34.2422C24.8767 33.2719 24.0892 32.4844 23.1189 32.4844Z" fill="#D6E3F2"/>
</g>
<defs>
<clipPath id="clip0_1_455">
<rect width="36" height="36" fill="white"/>
</clipPath>
</defs>
</svg>
