<svg width="19" height="19" viewBox="0 0 19 19" fill="none" xmlns="http://www.w3.org/2000/svg">
<path d="M4.01013 0.0388966C3.37674 0.280636 2.19706 1.44575 1.10051 2.90411C0.665056 3.48667 0.324611 4.00978 0.146471 4.3823L0 4.67556L0.047504 5.07581C0.411701 8.22636 3.03234 12.3439 6.54763 15.2844C9.02972 17.357 11.7058 18.7005 13.9108 18.9699C14.2749 19.0175 14.2947 19.0135 14.5243 18.9224C15.4586 18.538 17.6675 16.7626 18.5028 15.7203C19.0333 15.0585 19.1124 14.7375 18.867 14.2382C18.7007 13.8974 18.5226 13.7428 17.5804 13.1087C15.6684 11.8168 14.2987 11.1193 13.6851 11.1193C13.2299 11.1193 12.9725 11.3095 12.2283 12.1854C11.967 12.4905 11.7295 12.7441 11.7018 12.7441C11.6147 12.7441 10.9734 12.4826 10.5894 12.2924C9.23161 11.6068 8.09151 10.6002 7.25228 9.33599C6.93954 8.86836 6.49617 7.99255 6.35366 7.56851L6.25865 7.28714L6.41304 7.14844C6.49617 7.07314 6.75348 6.85122 6.98309 6.65307C7.69169 6.0507 7.85795 5.81689 7.88566 5.38096C7.89754 5.19867 7.8817 5.06392 7.81441 4.85389C7.69169 4.47741 7.26415 3.60556 6.86433 2.93582C6.41304 2.17493 5.43921 0.708635 5.21752 0.462933C4.89687 0.106266 4.34266 -0.0879192 4.01013 0.0388966Z" fill="#D6E3F2"/>
</svg>
