<svg width="24" height="25" viewBox="0 0 24 25" fill="none" xmlns="http://www.w3.org/2000/svg">
<path d="M23.7195 4.39723C23.4945 4.14428 23.1711 3.99711 22.8289 3.99711H6.20703C5.56016 3.99711 5.03516 4.51221 5.03516 5.14688C5.03516 5.78155 5.56016 6.29664 6.20703 6.29664H21.4602L20.4383 12.7859C20.3258 13.5126 19.6977 14.0415 18.9477 14.0415H4.27109L2.33047 1.71138C2.23203 1.08131 1.63203 0.653598 0.994532 0.750178C0.352344 0.846759 -0.0835931 1.43544 0.0148444 2.06091L2.68672 19.0222C2.78984 19.6753 3.12734 20.2732 3.63828 20.7055C4.14922 21.1378 4.80547 21.3724 5.47578 21.3724H7.31328V23.1338C7.31328 23.7685 7.83828 24.2836 8.48516 24.2836C9.13203 24.2836 9.65703 23.7685 9.65703 23.1338V21.3724H16.5102V23.1338C16.5102 23.7685 17.0352 24.2836 17.682 24.2836C18.3289 24.2836 18.8539 23.7685 18.8539 23.1338V21.3724H21.1133C21.7602 21.3724 22.2852 20.8573 22.2852 20.2226C22.2852 19.5879 21.7602 19.0728 21.1133 19.0728H5.47578C5.23672 19.0728 5.03516 18.9027 4.99766 18.6727L4.63203 16.341H18.9477C19.8664 16.341 20.757 16.0191 21.4555 15.4304C22.1539 14.8417 22.6133 14.0277 22.7539 13.14L23.9867 5.32164C24.0383 4.98591 23.9398 4.65018 23.7195 4.39723Z" fill="#D6E3F2"/>
</svg>
