<svg width="15" height="15" viewBox="0 0 15 15" fill="none" xmlns="http://www.w3.org/2000/svg">
<path d="M12.8316 6.29454C12.8496 4.17973 11.0484 2.241 8.81646 1.97291C8.77207 1.96765 8.72371 1.95964 8.67252 1.95116C8.56202 1.93285 8.44775 1.91403 8.33245 1.91403C7.875 1.91403 7.75272 2.23537 7.72053 2.42701C7.68922 2.61335 7.71908 2.76982 7.80913 2.89229C7.96062 3.09829 8.22717 3.13485 8.44127 3.16416C8.50402 3.17282 8.56323 3.18088 8.6128 3.19201C10.6181 3.6401 11.2934 4.34459 11.6234 6.33288C11.6314 6.38147 11.6351 6.44133 11.6389 6.50482C11.6533 6.74249 11.6833 7.23698 12.2149 7.23698H12.215C12.2592 7.23698 12.3068 7.23316 12.3563 7.22561C12.8514 7.15038 12.8359 6.69838 12.8284 6.4812C12.8263 6.42004 12.8243 6.36218 12.8295 6.3237C12.8309 6.31401 12.8316 6.30428 12.8316 6.29454Z" fill="#6D839F"/>
<path d="M8.20283 1.19665C8.26222 1.20093 8.31845 1.20503 8.36526 1.2122C11.6582 1.71862 13.1726 3.2788 13.5923 6.59753C13.5994 6.65394 13.6005 6.72275 13.6017 6.79561C13.6059 7.05489 13.6145 7.59429 14.1938 7.60547L14.2118 7.60565C14.3934 7.60565 14.5379 7.55087 14.6413 7.4427C14.8216 7.25408 14.8091 6.97388 14.7989 6.7487C14.7964 6.69345 14.7941 6.64141 14.7947 6.59585C14.8365 3.20166 11.8985 0.12382 8.50734 0.00936335C8.49328 0.00889752 8.47986 0.00964286 8.4663 0.0115528C8.45964 0.0125311 8.4473 0.0137422 8.42615 0.0137422C8.39233 0.0137422 8.35073 0.0108075 8.30661 0.00782609C8.25328 0.00419255 8.19281 0 8.13151 0C7.59146 0 7.48879 0.383851 7.47565 0.612671C7.44537 1.14149 7.95696 1.17871 8.20283 1.19665Z" fill="#6D839F"/>
<path d="M13.4332 10.8868C13.3631 10.8333 13.2908 10.778 13.223 10.7234C12.8634 10.434 12.4809 10.1673 12.111 9.90941C12.0343 9.85593 11.9575 9.8024 11.881 9.74874C11.4071 9.4159 10.9811 9.25416 10.5786 9.25416C10.0365 9.25416 9.56391 9.55369 9.17382 10.1443C9.00099 10.4062 8.79132 10.5335 8.53292 10.5335C8.38012 10.5335 8.2065 10.4899 8.01695 10.4038C6.48747 9.71026 5.39531 8.64684 4.77076 7.24313C4.46885 6.56469 4.56672 6.12121 5.09806 5.76028C5.39978 5.55549 5.9614 5.17425 5.92161 4.44419C5.87657 3.61514 4.04731 1.12062 3.27658 0.837296C2.95026 0.717296 2.6074 0.716178 2.2557 0.834501C1.36967 1.13236 0.733849 1.65545 0.416799 2.34712C0.110417 3.01546 0.124252 3.80021 0.456815 4.61655C1.41821 6.97677 2.76989 9.03456 4.47444 10.7327C6.14289 12.395 8.19355 13.7566 10.5694 14.7797C10.7836 14.8718 11.0082 14.9221 11.1722 14.9587C11.2281 14.9713 11.2764 14.982 11.3116 14.9917C11.3309 14.9969 11.3508 14.9998 11.3708 14.9999L11.3896 15C11.3896 15 11.3896 15 11.3897 15C12.5071 15 13.8489 13.9789 14.261 12.8148C14.622 11.7954 13.9628 11.2916 13.4332 10.8868Z" fill="#6D839F"/>
<path d="M8.69704 3.89274C8.50572 3.89759 8.10757 3.90746 7.96786 4.31297C7.90251 4.50248 7.91033 4.66701 7.99116 4.80201C8.10976 5.00009 8.337 5.06078 8.54369 5.09409C9.29327 5.21437 9.67824 5.62887 9.75524 6.39844C9.79102 6.75727 10.0326 7.00785 10.3429 7.00785H10.3429C10.3659 7.00785 10.3893 7.0065 10.4126 7.00366C10.7858 6.95926 10.9667 6.68512 10.9503 6.18891C10.9563 5.67103 10.6852 5.0831 10.2243 4.61479C9.76176 4.14504 9.2042 3.88049 8.69704 3.89274Z" fill="#6D839F"/>
</svg>
