<svg width="16" height="10" viewBox="0 0 16 10" fill="none" xmlns="http://www.w3.org/2000/svg">
<path d="M13.2767 5.68531C13.018 5.35865 13.092 5.21331 13.2767 4.92131C13.28 4.91798 15.4153 1.96731 15.6353 0.966646L15.6367 0.96598C15.746 0.601313 15.6367 0.333313 15.108 0.333313H13.3587C12.9133 0.333313 12.708 0.563313 12.598 0.820646C12.598 0.820646 11.7073 2.95265 10.4473 4.33465C10.0407 4.73398 9.85267 4.86198 9.63067 4.86198C9.52133 4.86198 9.35133 4.73398 9.35133 4.36931V0.96598C9.35133 0.528646 9.22667 0.333313 8.858 0.333313H6.10733C5.828 0.333313 5.662 0.537313 5.662 0.727313C5.662 1.14198 6.292 1.23731 6.35733 2.40398V4.93531C6.35733 5.48998 6.25667 5.59198 6.03333 5.59198C5.43867 5.59198 3.99533 3.45131 3.14 1.00131C2.96733 0.52598 2.79867 0.33398 2.35 0.33398H0.6C0.100667 0.33398 0 0.56398 0 0.821313C0 1.27598 0.594666 3.53665 2.76533 6.52331C4.212 8.56198 6.24933 9.66665 8.10267 9.66665C9.21667 9.66665 9.35267 9.42131 9.35267 8.99931C9.35267 7.05131 9.252 6.86731 9.81 6.86731C10.0687 6.86731 10.514 6.99531 11.554 7.97865C12.7427 9.14465 12.938 9.66665 13.6033 9.66665H15.3527C15.8513 9.66665 16.104 9.42131 15.9587 8.93731C15.626 7.91931 13.378 5.82531 13.2767 5.68531Z" fill="#6D839F"/>
</svg>
