<svg width="25" height="25" viewBox="0 0 25 25" fill="none" xmlns="http://www.w3.org/2000/svg">
<g clip-path="url(#clip0_24_435)">
<path d="M19.7664 7.47341C19.5789 7.25857 19.3094 7.13357 19.0243 7.13357H5.17269C4.63363 7.13357 4.19613 7.57107 4.19613 8.11013C4.19613 8.64919 4.63363 9.08669 5.17269 9.08669H17.8836L17.0321 14.5984C16.9383 15.2156 16.4149 15.6648 15.7899 15.6648H3.55941L1.94222 5.19216C1.86019 4.657 1.36019 4.29372 0.828939 4.37575C0.293783 4.45778 -0.0694982 4.95778 0.0125331 5.48903L2.2391 19.8953C2.32503 20.45 2.60628 20.9578 3.03206 21.325C3.45785 21.6922 4.00472 21.8914 4.56331 21.8914H6.09456V23.3875C6.09456 23.9265 6.53206 24.364 7.07113 24.364C7.61019 24.364 8.04769 23.9265 8.04769 23.3875V21.8914H13.7586V23.3875C13.7586 23.9265 14.1961 24.364 14.7352 24.364C15.2743 24.364 15.7118 23.9265 15.7118 23.3875V21.8914H17.5946C18.1336 21.8914 18.5711 21.4539 18.5711 20.9148C18.5711 20.3758 18.1336 19.9383 17.5946 19.9383H4.56331C4.3641 19.9383 4.19613 19.7937 4.16488 19.5984L3.86019 17.6179H15.7899C16.5555 17.6179 17.2977 17.3445 17.8797 16.8445C18.4618 16.3445 18.8446 15.6531 18.9618 14.8992L19.9891 8.25857C20.0321 7.97341 19.95 7.68825 19.7664 7.47341Z" fill="#D6E3F2"/>
</g>
<circle cx="19.1826" cy="5" r="5" fill="#FDC300"/>
<path d="M20.9974 6.058V7H17.7274V6.256L19.2994 4.78599C19.4514 4.64199 19.5534 4.51999 19.6054 4.41999C19.6574 4.31599 19.6834 4.21199 19.6834 4.10799C19.6834 3.97199 19.6374 3.86599 19.5454 3.78999C19.4534 3.71399 19.3194 3.67599 19.1434 3.67599C18.9874 3.67599 18.8434 3.71199 18.7114 3.78399C18.5834 3.85199 18.4774 3.95199 18.3934 4.08399L17.5114 3.59199C17.6754 3.31999 17.9054 3.10599 18.2014 2.94999C18.4974 2.79399 18.8474 2.71599 19.2514 2.71599C19.5714 2.71599 19.8534 2.76799 20.0974 2.87199C20.3454 2.97599 20.5374 3.12599 20.6734 3.32199C20.8134 3.51399 20.8834 3.73799 20.8834 3.99399C20.8834 4.22199 20.8334 4.43799 20.7334 4.64199C20.6374 4.842 20.4494 5.07 20.1694 5.326L19.3774 6.058H20.9974Z" fill="#172542"/>
<defs>
<clipPath id="clip0_24_435">
<rect width="20" height="20" fill="white" transform="translate(0.000488281 4.36371)"/>
</clipPath>
</defs>
</svg>
