<svg width="36" height="36" viewBox="0 0 36 36" fill="none" xmlns="http://www.w3.org/2000/svg">
<g clip-path="url(#clip0_1_448)">
<path d="M35.5783 5.59732C35.2408 5.2106 34.7557 4.9856 34.2424 4.9856H9.30957C8.33926 4.9856 7.55176 5.7731 7.55176 6.74341C7.55176 7.71372 8.33926 8.50122 9.30957 8.50122H32.1893L30.6564 18.4223C30.4877 19.5333 29.5455 20.3419 28.4205 20.3419H6.40566L3.49473 1.49107C3.34707 0.527784 2.44707 -0.126122 1.49082 0.0215342C0.52754 0.16919 -0.126366 1.06919 0.02129 2.02544L4.0291 27.9567C4.18379 28.9551 4.69004 29.8692 5.45645 30.5301C6.22285 31.1911 7.20723 31.5497 8.2127 31.5497H10.9689V34.2426C10.9689 35.213 11.7564 36.0005 12.7268 36.0005C13.6971 36.0005 14.4846 35.213 14.4846 34.2426V31.5497H24.7643V34.2426C24.7643 35.213 25.5518 36.0005 26.5221 36.0005C27.4924 36.0005 28.2799 35.213 28.2799 34.2426V31.5497H31.6689C32.6393 31.5497 33.4268 30.7622 33.4268 29.7919C33.4268 28.8215 32.6393 28.034 31.6689 28.034H8.2127C7.8541 28.034 7.55176 27.7739 7.49551 27.4223L6.94707 23.8575H28.4205C29.7986 23.8575 31.1346 23.3653 32.1822 22.4653C33.2299 21.5653 33.9189 20.3208 34.1299 18.9637L35.9791 7.0106C36.0564 6.49732 35.9088 5.98404 35.5783 5.59732Z" fill="#D6E3F2"/>
</g>
<defs>
<clipPath id="clip0_1_448">
<rect width="36" height="36" fill="white"/>
</clipPath>
</defs>
</svg>
