<svg width="15" height="15" viewBox="0 0 15 15" fill="none" xmlns="http://www.w3.org/2000/svg">
<path d="M1 2.44445C1 2.06136 1.15218 1.69395 1.42307 1.42307C1.69395 1.15218 2.06136 1 2.44445 1H4.81333C4.96485 1.00011 5.11249 1.04788 5.23537 1.13653C5.35824 1.22519 5.45012 1.35025 5.498 1.494L6.57989 4.73894C6.6347 4.90386 6.62822 5.083 6.56163 5.24352C6.49504 5.40404 6.37279 5.53516 6.21733 5.61283L4.58728 6.42894C5.38628 8.19733 6.80266 9.61369 8.57105 10.4128L9.38715 8.78267C9.46485 8.62719 9.59598 8.50496 9.7565 8.43834C9.91702 8.37179 10.0962 8.36531 10.261 8.4201L13.506 9.502C13.6499 9.54993 13.775 9.64187 13.8637 9.76494C13.9524 9.88793 14 10.0357 14 10.1874V12.5555C14 12.9387 13.8478 13.3061 13.5769 13.5769C13.3061 13.8478 12.9387 14 12.5555 14H11.8333C5.85045 14 1 9.14953 1 3.16667V2.44445Z" stroke="#FDC300" stroke-linecap="round" stroke-linejoin="round"/>
</svg>
