<svg width="40" height="40" viewBox="0 0 40 40" fill="none" xmlns="http://www.w3.org/2000/svg">
<path d="M19.9999 37.1397C19.5159 37.1397 19.0519 36.9797 18.6559 36.6717C18.2399 36.3517 8.45987 28.7517 4.57187 22.6557C3.23187 20.5557 1.56787 17.9397 1.56787 14.2037C1.56787 7.94771 6.22387 2.85571 11.9479 2.85571C13.4959 2.85571 15.0519 3.24371 16.4479 3.97971C17.8159 4.69971 19.0479 5.76371 20.0039 7.05171C20.9639 5.76371 22.1919 4.69971 23.5599 3.97971C24.9559 3.24371 26.5119 2.85571 28.0559 2.85571C33.7799 2.85571 38.4359 7.94771 38.4359 14.2037C38.4359 17.9357 36.7679 20.5517 35.4279 22.6557C34.0479 24.8197 31.7839 27.4077 28.6919 30.3397L28.6639 30.3117C31.7519 27.3797 34.0159 24.7957 35.3919 22.6357C36.7279 20.5397 38.3919 17.9277 38.3919 14.2077C38.3919 7.97171 33.7519 2.89971 28.0519 2.89971C26.5119 2.89971 24.9639 3.28771 23.5719 4.01971C22.1999 4.74371 20.9679 5.80771 20.0119 7.10371L19.9959 7.12371L19.9799 7.10371C19.0239 5.81171 17.7919 4.74371 16.4199 4.01971C15.0319 3.28771 13.4799 2.89971 11.9399 2.89971C6.23987 2.89971 1.59987 7.97171 1.59987 14.2077C1.59987 17.9317 3.26387 20.5397 4.59987 22.6357C8.48787 28.7277 18.2679 36.3237 18.6799 36.6437C19.0679 36.9437 19.5239 37.1037 19.9999 37.1037C20.4759 37.1037 20.9319 36.9437 21.3199 36.6437C21.4319 36.5557 22.4519 35.7677 23.9439 34.5157L23.9679 34.5477C22.4759 35.7997 21.4559 36.5917 21.3439 36.6757C20.9479 36.9797 20.4839 37.1397 19.9999 37.1397Z" fill="#D6E3F2"/>
<path d="M19.9999 38.3079C19.2559 38.3079 18.5439 38.0639 17.9439 37.5959C17.5239 37.2719 7.5839 29.5519 3.5879 23.2839C2.2439 21.1719 0.399902 18.2799 0.399902 14.2039C0.399902 7.3079 5.5799 1.69189 11.9439 1.69189C13.6799 1.69189 15.4239 2.12789 16.9879 2.95189C18.0959 3.53589 19.1159 4.31589 19.9999 5.24789C20.8839 4.31589 21.9079 3.53589 23.0119 2.95189C24.5759 2.12789 26.3159 1.69189 28.0519 1.69189C34.4199 1.69189 39.5999 7.3079 39.5999 14.2039C39.5999 18.2759 37.7559 21.1679 36.4119 23.2799C34.9799 25.5239 32.6559 28.1839 29.4959 31.1839L27.8639 29.4639C30.8799 26.5999 33.0839 24.0919 34.4119 22.0079C35.7319 19.9359 37.2319 17.5879 37.2319 14.2039C37.2319 8.61189 33.1159 4.06389 28.0559 4.06389C26.6839 4.06389 25.3599 4.39589 24.1199 5.04789C22.9039 5.69189 21.8079 6.63989 20.9519 7.79189L19.9999 9.08389L19.0479 7.79589C18.1959 6.64389 17.0999 5.69189 15.8839 5.05189C14.6439 4.39989 13.3199 4.06789 11.9479 4.06789C6.8879 4.06789 2.7719 8.61589 2.7719 14.2079C2.7719 17.5919 4.2679 19.9399 5.5879 22.0119C9.3639 27.9319 18.9839 35.4039 19.3919 35.7199C19.5759 35.8599 19.7839 35.9359 19.9959 35.9359C20.2119 35.9359 20.4199 35.8599 20.5999 35.7199C20.7119 35.6359 21.7159 34.8559 23.1879 33.6199L24.7119 35.4359C23.2039 36.6999 22.1639 37.5079 22.0519 37.5919C21.4559 38.0599 20.7439 38.3079 19.9999 38.3079Z" fill="#D6E3F2"/>
<path d="M27.9238 29.4519L29.4678 31.2519L27.9238 29.4519Z" fill="#D6E3F2"/>
<path d="M24.6758 35.3679L23.1318 33.5679L24.6758 35.3679Z" fill="#D6E3F2"/>
<path d="M5.73987 15.4398C5.72787 13.2238 6.57587 11.1358 8.13587 9.5558C9.69587 7.9798 11.7719 7.1038 13.9879 7.0918L13.9999 9.4638C12.4159 9.4718 10.9319 10.0998 9.81987 11.2238C8.70787 12.3518 8.09987 13.8438 8.10787 15.4238L5.73987 15.4398Z" fill="#D6E3F2"/>
</svg>
