<svg width="20" height="20" viewBox="0 0 20 20" fill="none" xmlns="http://www.w3.org/2000/svg">
<path d="M10.0002 18.57C9.75818 18.57 9.52618 18.49 9.32818 18.336C9.12018 18.176 4.23018 14.376 2.28618 11.328C1.61618 10.278 0.78418 8.96998 0.78418 7.10198C0.78418 3.97398 3.11218 1.42798 5.97418 1.42798C6.74818 1.42798 7.52618 1.62198 8.22418 1.98998C8.90818 2.34998 9.52418 2.88198 10.0022 3.52598C10.4822 2.88198 11.0962 2.34998 11.7802 1.98998C12.4782 1.62198 13.2562 1.42798 14.0282 1.42798C16.8902 1.42798 19.2182 3.97398 19.2182 7.10198C19.2182 8.96798 18.3842 10.276 17.7142 11.328C17.0242 12.41 15.8922 13.704 14.3462 15.17L14.3322 15.156C15.8762 13.69 17.0082 12.398 17.6962 11.318C18.3642 10.27 19.1962 8.96398 19.1962 7.10398C19.1962 3.98598 16.8762 1.44998 14.0262 1.44998C13.2562 1.44998 12.4822 1.64398 11.7862 2.00998C11.1002 2.37198 10.4842 2.90398 10.0062 3.55198L9.99818 3.56198L9.99018 3.55198C9.51218 2.90598 8.89618 2.37198 8.21018 2.00998C7.51618 1.64398 6.74018 1.44998 5.97018 1.44998C3.12018 1.44998 0.80018 3.98598 0.80018 7.10398C0.80018 8.96598 1.63218 10.27 2.30018 11.318C4.24418 14.364 9.13418 18.162 9.34018 18.322C9.53418 18.472 9.76218 18.552 10.0002 18.552C10.2382 18.552 10.4662 18.472 10.6602 18.322C10.7162 18.278 11.2262 17.884 11.9722 17.258L11.9842 17.274C11.2382 17.9 10.7282 18.296 10.6722 18.338C10.4742 18.49 10.2422 18.57 10.0002 18.57Z" fill="#3287EB"/>
<path d="M10.0002 19.1539C9.6282 19.1539 9.2722 19.0319 8.9722 18.7979C8.7622 18.6359 3.7922 14.7759 1.7942 11.6419C1.1222 10.5859 0.200195 9.13995 0.200195 7.10195C0.200195 3.65395 2.7902 0.845947 5.9722 0.845947C6.8402 0.845947 7.7122 1.06395 8.4942 1.47595C9.0482 1.76795 9.5582 2.15795 10.0002 2.62395C10.4422 2.15795 10.9542 1.76795 11.5062 1.47595C12.2882 1.06395 13.1582 0.845947 14.0262 0.845947C17.2102 0.845947 19.8002 3.65395 19.8002 7.10195C19.8002 9.13795 18.8782 10.5839 18.2062 11.6399C17.4902 12.7619 16.3282 14.0919 14.7482 15.5919L13.9322 14.7319C15.4402 13.2999 16.5422 12.0459 17.2062 11.0039C17.8662 9.96795 18.6162 8.79395 18.6162 7.10195C18.6162 4.30595 16.5582 2.03195 14.0282 2.03195C13.3422 2.03195 12.6802 2.19795 12.0602 2.52395C11.4522 2.84595 10.9042 3.31995 10.4762 3.89595L10.0002 4.54195L9.5242 3.89795C9.0982 3.32195 8.5502 2.84595 7.9422 2.52595C7.3222 2.19995 6.6602 2.03395 5.9742 2.03395C3.4442 2.03395 1.3862 4.30795 1.3862 7.10395C1.3862 8.79595 2.1342 9.96995 2.7942 11.0059C4.6822 13.9659 9.4922 17.7019 9.6962 17.8599C9.7882 17.9299 9.8922 17.9679 9.9982 17.9679C10.1062 17.9679 10.2102 17.9299 10.3002 17.8599C10.3562 17.8179 10.8582 17.4279 11.5942 16.8099L12.3562 17.7179C11.6022 18.3499 11.0822 18.7539 11.0262 18.7959C10.7282 19.0299 10.3722 19.1539 10.0002 19.1539Z" fill="#3287EB"/>
<path d="M13.9629 14.7258L14.7349 15.6258L13.9629 14.7258Z" fill="#3287EB"/>
<path d="M12.3384 17.6839L11.5664 16.7839L12.3384 17.6839Z" fill="#3287EB"/>
<path d="M2.87018 7.7199C2.86418 6.6119 3.28818 5.5679 4.06818 4.7779C4.84818 3.9899 5.88618 3.5519 6.99418 3.5459L7.00018 4.7319C6.20818 4.7359 5.46618 5.0499 4.91018 5.6119C4.35418 6.1759 4.05018 6.9219 4.05418 7.7119L2.87018 7.7199Z" fill="#3287EB"/>
</svg>
