<svg width="18" height="18" viewBox="0 0 18 18" fill="none" xmlns="http://www.w3.org/2000/svg">
<path d="M8.99948 16.713C8.78168 16.713 8.57288 16.641 8.39468 16.5024C8.20748 16.3584 3.80648 12.9384 2.05688 10.1952C1.45388 9.25015 0.705078 8.07295 0.705078 6.39176C0.705078 3.57656 2.80028 1.28516 5.37608 1.28516C6.07268 1.28516 6.77288 1.45976 7.40108 1.79096C8.01668 2.11496 8.57108 2.59376 9.00128 3.17336C9.43328 2.59376 9.98588 2.11496 10.6015 1.79096C11.2297 1.45976 11.9299 1.28516 12.6247 1.28516C15.2005 1.28516 17.2957 3.57656 17.2957 6.39176C17.2957 8.07115 16.5451 9.24835 15.9421 10.1952C15.3211 11.169 14.3023 12.3336 12.9109 13.653L12.8983 13.6404C14.2879 12.321 15.3067 11.1582 15.9259 10.1862C16.5271 9.24295 17.2759 8.06755 17.2759 6.39356C17.2759 3.58736 15.1879 1.30496 12.6229 1.30496C11.9299 1.30496 11.2333 1.47956 10.6069 1.80896C9.98948 2.13476 9.43508 2.61356 9.00488 3.19676L8.99768 3.20576L8.99048 3.19676C8.56028 2.61536 8.00588 2.13476 7.38848 1.80896C6.76388 1.47956 6.06548 1.30496 5.37248 1.30496C2.80748 1.30496 0.719478 3.58736 0.719478 6.39356C0.719478 8.06936 1.46828 9.24295 2.06948 10.1862C3.81908 12.9276 8.22008 16.3458 8.40548 16.4898C8.58008 16.6248 8.78528 16.6968 8.99948 16.6968C9.21368 16.6968 9.41888 16.6248 9.59348 16.4898C9.64388 16.4502 10.1029 16.0956 10.7743 15.5322L10.7851 15.5466C10.1137 16.11 9.65468 16.4664 9.60428 16.5042C9.42608 16.641 9.21728 16.713 8.99948 16.713Z" fill="#2963CB"/>
<path d="M8.99969 17.2386C8.66489 17.2386 8.34449 17.1288 8.07449 16.9182C7.88549 16.7724 3.41249 13.2984 1.61429 10.4778C1.00949 9.52735 0.179688 8.22595 0.179688 6.39175C0.179688 3.28855 2.51069 0.761353 5.37449 0.761353C6.15569 0.761353 6.94049 0.957553 7.64429 1.32835C8.14289 1.59115 8.60189 1.94215 8.99969 2.36155C9.39749 1.94215 9.85829 1.59115 10.3551 1.32835C11.0589 0.957553 11.8419 0.761353 12.6231 0.761353C15.4887 0.761353 17.8197 3.28855 17.8197 6.39175C17.8197 8.22415 16.9899 9.52555 16.3851 10.476C15.7407 11.4858 14.6949 12.6828 13.2729 14.0328L12.5385 13.2588C13.8957 11.97 14.8875 10.8414 15.4851 9.90355C16.0791 8.97115 16.7541 7.91455 16.7541 6.39175C16.7541 3.87535 14.9019 1.82875 12.6249 1.82875C12.0075 1.82875 11.4117 1.97815 10.8537 2.27155C10.3065 2.56135 9.81329 2.98795 9.42809 3.50635L8.99969 4.08775L8.57129 3.50815C8.18789 2.98975 7.69469 2.56135 7.14749 2.27335C6.58949 1.97995 5.99369 1.83055 5.37629 1.83055C3.09929 1.83055 1.24709 3.87715 1.24709 6.39355C1.24709 7.91635 1.92029 8.97295 2.51429 9.90535C4.21349 12.5694 8.54249 15.9318 8.72609 16.074C8.80889 16.137 8.90249 16.1712 8.99789 16.1712C9.09509 16.1712 9.18869 16.137 9.26969 16.074C9.32009 16.0362 9.77189 15.6852 10.4343 15.129L11.1201 15.9462C10.4415 16.515 9.97349 16.8786 9.92309 16.9164C9.65489 17.127 9.33449 17.2386 8.99969 17.2386Z" fill="#2963CB"/>
<path d="M12.5654 13.2533L13.2602 14.0633L12.5654 13.2533Z" fill="#2963CB"/>
<path d="M11.104 15.9156L10.4092 15.1056L11.104 15.9156Z" fill="#2963CB"/>
<path d="M2.58306 6.94801C2.57766 5.95081 2.95926 5.01121 3.66126 4.30021C4.36326 3.59101 5.29747 3.19681 6.29467 3.19141L6.30007 4.25881C5.58727 4.26241 4.91946 4.54501 4.41906 5.05081C3.91866 5.55841 3.64506 6.22981 3.64866 6.94081L2.58306 6.94801Z" fill="#2963CB"/>
</svg>
