<svg width="13" height="13" viewBox="0 0 13 13" fill="none" xmlns="http://www.w3.org/2000/svg">
<path d="M6.5 1.18182C3.56285 1.18182 1.18182 3.56285 1.18182 6.5C1.18182 9.43715 3.56285 11.8182 6.5 11.8182C6.82635 11.8182 7.09091 12.0827 7.09091 12.4091C7.09091 12.7354 6.82635 13 6.5 13C2.91015 13 0 10.0899 0 6.5C0 2.91015 2.91015 0 6.5 0C10.0899 0 13 2.91015 13 6.5C13 7.19036 12.9262 8.03092 12.6152 8.71947C12.4564 9.0711 12.2248 9.40753 11.8865 9.65614C11.5416 9.90962 11.1213 10.0455 10.6364 10.0455C10.139 10.0455 9.71423 9.89287 9.37148 9.62405C9.03749 9.3621 8.81027 9.013 8.65466 8.6573C8.64101 8.62611 8.62782 8.59465 8.61508 8.56296C8.07849 9.11301 7.32913 9.45455 6.5 9.45455C4.86825 9.45455 3.54545 8.13175 3.54545 6.5C3.54545 4.86825 4.86825 3.54545 6.5 3.54545C7.19069 3.54545 7.82603 3.78246 8.32912 4.17957C8.42375 3.9794 8.62752 3.84091 8.86364 3.84091C9.18999 3.84091 9.45455 4.10547 9.45455 4.43182V6.5C9.45455 7.05905 9.52685 7.70237 9.73739 8.18361C9.84029 8.41882 9.96393 8.58676 10.1008 8.69413C10.229 8.79463 10.3951 8.86364 10.6364 8.86364C10.8901 8.86364 11.0606 8.79647 11.1866 8.70386C11.3192 8.60639 11.4385 8.45366 11.5382 8.23296C11.7442 7.77688 11.8182 7.14016 11.8182 6.5C11.8182 3.56285 9.43715 1.18182 6.5 1.18182ZM8.27273 6.5C8.27273 5.52095 7.47905 4.72727 6.5 4.72727C5.52095 4.72727 4.72727 5.52095 4.72727 6.5C4.72727 7.47905 5.52095 8.27273 6.5 8.27273C7.47905 8.27273 8.27273 7.47905 8.27273 6.5Z" fill="#FDC300"/>
</svg>
