<svg width="12" height="13" viewBox="0 0 12 13" fill="none" xmlns="http://www.w3.org/2000/svg">
<g clip-path="url(#clip0_1_4077)">
<path d="M6 0C3.51825 0 1.5 2.08132 1.5 4.64062C1.5 7.85735 5.562 12.0834 5.7345 12.2621C5.808 12.3371 5.904 12.375 6 12.375C6.096 12.375 6.192 12.3371 6.2655 12.2621C6.438 12.0834 10.5 7.85735 10.5 4.64062C10.5 2.08132 8.48175 0 6 0ZM6 11.4291C5.1045 10.4406 2.25 7.09784 2.25 4.64062C2.25 2.50826 3.93225 0.773438 6 0.773438C8.06775 0.773438 9.75 2.50826 9.75 4.64062C9.75 7.09552 6.8955 10.4406 6 11.4291Z" fill="black"/>
<path d="M6 2.32031C4.7595 2.32031 3.75 3.36136 3.75 4.64062C3.75 5.91989 4.7595 6.96094 6 6.96094C7.2405 6.96094 8.25 5.91989 8.25 4.64062C8.25 3.36136 7.2405 2.32031 6 2.32031ZM6 6.1875C5.17275 6.1875 4.5 5.49373 4.5 4.64062C4.5 3.78752 5.17275 3.09375 6 3.09375C6.82725 3.09375 7.5 3.78752 7.5 4.64062C7.5 5.49373 6.82725 6.1875 6 6.1875Z" fill="black"/>
</g>
<defs>
<clipPath id="clip0_1_4077">
<rect width="12" height="12.375" fill="white"/>
</clipPath>
</defs>
</svg>
