<svg width="19" height="19" viewBox="0 0 19 19" fill="none" xmlns="http://www.w3.org/2000/svg">
<path d="M18.6662 17.078L15.0146 13.4264C16.1212 11.9776 16.7282 10.2204 16.7284 8.36607C16.7284 6.13147 15.8581 4.03047 14.2778 2.45039C12.6977 0.870309 10.597 0 8.36209 0C6.12749 0 4.02649 0.870309 2.4464 2.45039C-0.815468 5.71254 -0.815468 11.0202 2.4464 14.2818C4.02649 15.8621 6.12749 16.7324 8.36209 16.7324C10.2164 16.7322 11.9736 16.1252 13.4224 15.0185L17.074 18.6701C17.2936 18.89 17.582 19 17.8701 19C18.1582 19 18.4465 18.89 18.6662 18.6701C19.106 18.2306 19.106 17.5175 18.6662 17.078ZM4.03858 12.6896C1.65471 10.3057 1.65499 6.42671 4.03858 4.04256C5.1934 2.88802 6.72895 2.25192 8.36209 2.25192C9.9955 2.25192 11.5308 2.88802 12.6856 4.04256C13.8404 5.19739 14.4765 6.73294 14.4765 8.36607C14.4765 9.99948 13.8404 11.5348 12.6856 12.6896C11.5308 13.8444 9.9955 14.4805 8.36209 14.4805C6.72895 14.4805 5.1934 13.8444 4.03858 12.6896Z" fill="#3287EB"/>
</svg>
