<svg width="16" height="16" viewBox="0 0 16 16" fill="none" xmlns="http://www.w3.org/2000/svg">
<path d="M4.75073 0.72728C2.52892 0.72728 0.727295 2.5032 0.727295 4.6939C0.727295 5.4262 0.930154 6.1115 1.28127 6.70029C1.18907 7.14452 1.13923 7.60512 1.13923 8.07636C1.13923 11.8545 4.24473 14.9176 8.07637 14.9176C8.51076 14.9176 8.93566 14.8776 9.34768 14.8022C9.91389 15.1026 10.5614 15.2727 11.2493 15.2727C13.4715 15.2727 15.2728 13.4971 15.2728 11.3061C15.2728 10.6733 15.1212 10.0757 14.8537 9.54475C14.9585 9.07172 15.0153 8.58027 15.0153 8.07636C15.0153 4.29825 11.9098 1.23509 8.07815 1.23509C7.67373 1.23509 7.27602 1.27155 6.89029 1.3363C6.27007 0.951336 5.53767 0.72728 4.75073 0.72728ZM8.03198 3.26279C8.65176 3.26279 9.1964 3.33446 9.6513 3.47408C10.1083 3.61445 10.4937 3.80363 10.7965 4.03694C11.1016 4.27209 11.3287 4.52343 11.4713 4.78445C11.6153 5.04866 11.6879 5.30972 11.6879 5.56393C11.6879 5.80826 11.5929 6.03125 11.4038 6.22444C11.2135 6.41935 10.9727 6.51918 10.69 6.51918C10.4332 6.51918 10.2328 6.45643 10.0934 6.33452C9.96336 6.22155 9.82919 6.04471 9.67971 5.7912C9.50661 5.46688 9.29671 5.21133 9.05649 5.03126C8.8234 4.85622 8.43436 4.76847 7.89882 4.76847C7.40143 4.76847 6.99716 4.86575 6.69676 5.05967C6.40721 5.24682 6.26529 5.46274 6.26529 5.71663C6.26529 5.87252 6.31037 6.00216 6.40379 6.11435C6.50239 6.23291 6.64178 6.3366 6.81749 6.4233C6.99968 6.51394 7.18881 6.58523 7.3768 6.63637C7.5698 6.68919 7.89227 6.76764 8.33561 6.86897C8.89711 6.98776 9.41335 7.1211 9.8697 7.26492C10.3314 7.41086 10.7323 7.59049 11.0576 7.79937C11.39 8.01269 11.6523 8.28699 11.8388 8.61435C12.0262 8.94244 12.1211 9.3473 12.1211 9.81819C12.121 10.3815 11.9569 10.896 11.6346 11.3452C11.314 11.7934 10.841 12.1481 10.2266 12.3999C9.61826 12.6492 8.88878 12.7763 8.05862 12.7763C7.06205 12.7763 6.22643 12.6023 5.5746 12.2614C5.10854 12.0128 4.72288 11.6786 4.43113 11.2635C4.13654 10.8441 3.98724 10.4272 3.98724 10.0259C3.98724 9.7752 4.08471 9.55903 4.27666 9.3814C4.4667 9.20493 4.7108 9.11506 5.00109 9.11506C5.23957 9.11506 5.44475 9.1854 5.61188 9.32458C5.77146 9.45816 5.90863 9.65555 6.01849 9.91052C6.14166 10.1882 6.27646 10.4219 6.41799 10.6065C6.5542 10.7842 6.74866 10.9337 6.9986 11.0504C7.25037 11.168 7.59003 11.228 8.00712 11.228C8.58084 11.228 9.05085 11.1076 9.4045 10.8693C9.74986 10.6371 9.91764 10.3573 9.91764 10.0153C9.91764 9.74509 9.82972 9.53367 9.64953 9.36719C9.46045 9.19313 9.21201 9.05713 8.90911 8.96414C8.594 8.86765 8.16688 8.76265 7.63781 8.65342C6.91787 8.50142 6.30619 8.32144 5.81962 8.11719C5.32224 7.90871 4.91963 7.61825 4.62644 7.25604C4.3286 6.88891 4.179 6.42754 4.179 5.8853C4.179 5.36855 4.33678 4.90383 4.64953 4.50214C4.95961 4.10299 5.41198 3.79157 5.99541 3.57884C6.57127 3.3689 7.25728 3.26279 8.03198 3.26279Z" fill="#6D839F"/>
</svg>
