<svg width="4" height="4" viewBox="0 0 4 4" fill="none" xmlns="http://www.w3.org/2000/svg">
<path d="M0.0836838 0.0836838C0.195262 -0.0278946 0.376166 -0.0278946 0.487745 0.0836838L2 1.59594L3.51225 0.0836838C3.62383 -0.0278946 3.80474 -0.0278946 3.91632 0.0836838C4.02789 0.195262 4.02789 0.376166 3.91632 0.487745L2.40406 2L3.91632 3.51225C4.02789 3.62383 4.02789 3.80474 3.91632 3.91632C3.80474 4.02789 3.62383 4.02789 3.51225 3.91632L2 2.40406L0.487745 3.91632C0.376166 4.02789 0.195262 4.02789 0.0836838 3.91632C-0.0278946 3.80474 -0.0278946 3.62383 0.0836838 3.51225L1.59594 2L0.0836838 0.487745C-0.0278946 0.376166 -0.0278946 0.195262 0.0836838 0.0836838Z" fill="white"/>
</svg>
