<svg width="16" height="16" viewBox="0 0 16 16" fill="none" xmlns="http://www.w3.org/2000/svg">
<g clip-path="url(#clip0_1_165)">
<path d="M15.8133 2.4881C15.6633 2.31623 15.4477 2.21623 15.2196 2.21623H4.13835C3.7071 2.21623 3.3571 2.56623 3.3571 2.99748C3.3571 3.42873 3.7071 3.77873 4.13835 3.77873H14.3071L13.6258 8.18811C13.5508 8.68186 13.1321 9.04123 12.6321 9.04123H2.84772L1.55397 0.663103C1.48835 0.234978 1.08835 -0.0556474 0.663347 0.00997765C0.235222 0.0756027 -0.0554032 0.475603 0.0102218 0.900603L1.79147 12.4256C1.86022 12.8694 2.08522 13.2756 2.42585 13.5694C2.76647 13.8631 3.20397 14.0225 3.65085 14.0225H4.87585V15.2194C4.87585 15.6506 5.22585 16.0006 5.6571 16.0006C6.08835 16.0006 6.43835 15.6506 6.43835 15.2194V14.0225H11.0071V15.2194C11.0071 15.6506 11.3571 16.0006 11.7883 16.0006C12.2196 16.0006 12.5696 15.6506 12.5696 15.2194V14.0225H14.0758C14.5071 14.0225 14.8571 13.6725 14.8571 13.2412C14.8571 12.81 14.5071 12.46 14.0758 12.46H3.65085C3.49147 12.46 3.3571 12.3444 3.3321 12.1881L3.08835 10.6037H12.6321C13.2446 10.6037 13.8383 10.385 14.304 9.98498C14.7696 9.58498 15.0758 9.03186 15.1696 8.42873L15.9915 3.11623C16.0258 2.8881 15.9602 2.65998 15.8133 2.4881Z" fill="#D6E3F2"/>
</g>
<defs>
<clipPath id="clip0_1_165">
<rect width="16" height="16" fill="white"/>
</clipPath>
</defs>
</svg>
