<svg width="12" height="12" viewBox="0 0 12 12" fill="none" xmlns="http://www.w3.org/2000/svg">
<circle cx="6" cy="6" r="6" fill="#398AEA"/>
<path d="M4.08368 4.08368C4.19526 3.97211 4.37617 3.97211 4.48774 4.08368L6 5.59594L7.51225 4.08368C7.62383 3.97211 7.80474 3.97211 7.91632 4.08368C8.02789 4.19526 8.02789 4.37617 7.91632 4.48774L6.40406 6L7.91632 7.51225C8.02789 7.62383 8.02789 7.80474 7.91632 7.91632C7.80474 8.02789 7.62383 8.02789 7.51225 7.91632L6 6.40406L4.48774 7.91632C4.37617 8.02789 4.19526 8.02789 4.08368 7.91632C3.97211 7.80474 3.97211 7.62383 4.08368 7.51225L5.59594 6L4.08368 4.48774C3.97211 4.37617 3.97211 4.19526 4.08368 4.08368Z" fill="white"/>
</svg>
